<?xml version="1.0" encoding="utf-8"?>
<!-- Generator: Adobe Illustrator 23.0.1, SVG Export Plug-In . SVG Version: 6.00 Build 0)  -->
<svg version="1.1" id="Layer_1" xmlns="http://www.w3.org/2000/svg" xmlns:xlink="http://www.w3.org/1999/xlink" x="0px" y="0px"
	 viewBox="0 0 512 512" style="enable-background:new 0 0 512 512;" xml:space="preserve">
<style type="text/css">
	.st0{fill-rule:evenodd;clip-rule:evenodd;fill:#1B1B1B;}
</style>
<path class="st0" d="M455.6,184.5l-50.8,173.3c-0.8,2.8-3.4,4.8-6.4,4.8H229.6l0,0c0,0,0,0,0,0c-0.8,0-1.6-0.2-2.4-0.5
	c-0.3-0.1-0.5-0.2-0.7-0.4c-0.5-0.2-0.9-0.5-1.3-0.9c-0.2-0.2-0.4-0.4-0.6-0.6c-0.3-0.4-0.6-0.8-0.8-1.3c-0.1-0.3-0.3-0.5-0.4-0.8
	c-0.1-0.2-0.2-0.3-0.2-0.4L144.2,77.3c-1.2-4.2-6.2-8-10.5-8H62.8c-3.7,0-6.7-3-6.7-6.7c0-3.7,3-6.7,6.7-6.7h70.9
	c10.3,0,20.6,7.8,23.4,17.7L185.9,176h32l98-91.5c2.6-2.4,6.5-2.4,9.1,0l98,91.5h26.2c2.1,0,4.1,1,5.3,2.7
	C455.8,180.4,456.2,182.5,455.6,184.5z M320.4,98.5l-83,77.5h166L320.4,98.5z M189.6,189.3l45,160h158.7l46.9-160H189.6z M256,389.3
	c18.4,0,33.3,15,33.3,33.3c0,18.4-14.9,33.3-33.3,33.3c-18.4,0-33.3-15-33.3-33.3C222.7,404.3,237.6,389.3,256,389.3z M256,442.7
	c11,0,20-9,20-20c0-11-9-20-20-20c-11,0-20,9-20,20C236,433.7,245,442.7,256,442.7z M369.2,389.3c18.4,0,33.3,15,33.3,33.3
	c0,18.4-14.9,33.3-33.3,33.3c-18.4,0-33.3-15-33.3-33.3C335.9,404.3,350.9,389.3,369.2,389.3z M369.2,442.7c11,0,20-9,20-20
	c0-11-9-20-20-20c-11,0-20,9-20,20C349.3,433.7,358.2,442.7,369.2,442.7z"/>
</svg>
